<svg width="32" height="32" viewBox="0 0 32 32" fill="none" xmlns="http://www.w3.org/2000/svg">
<g id="Favourite Icons">
<path id="Fav - Passive" fill-rule="evenodd" clip-rule="evenodd" d="M16 29.954C8.49318 21.896 1.33271 14.976 1.33271 9.006C1.33271 3.49 5.42306 1.454 8.37647 1.454C10.1271 1.454 13.9106 2.184 16.0019 7.938C18.1195 2.166 21.952 1.47 23.6348 1.47C27.0231 1.47 30.6673 3.826 30.6673 9.006C30.6673 14.924 23.8193 21.55 16 29.954ZM23.6348 0.014C20.6984 0.014 17.7054 1.53 16 4.724C14.2871 1.516 11.3035 0 8.37459 0C4.12988 0 0 3.18 0 9.006C0 15.786 7.42776 22.72 16 32C24.5741 22.72 32 15.784 32 9.006C32 3.17 27.8739 0.014 23.6348 0.014Z" fill="black"/>
</g>
</svg>
