<svg width="32" height="32" viewBox="0 0 32 32" fill="none" xmlns="http://www.w3.org/2000/svg">
<g id="Dummy-Icon">
<path id="Logo" d="M25.6898 5.46296H21.3449V3.07735H25.6898V5.46296ZM17.9314 5.46296H13.7587V3.07735H17.9311L17.9314 5.46296ZM10.345 5.46296H6.20695V3.07735H10.3449L10.345 5.46296ZM29.6554 0H2.41382V8.50561H29.6552L29.6554 0ZM8.41374 20.7799H23.5173V22.5087H8.41374V20.7799ZM8.41374 16.6309H23.5173V18.3597H8.41374V16.6309ZM8.41374 12.5165H23.5173V14.2106H8.41374V12.5165ZM27.8277 25.1019V9.92317H4.27589V25.1019H9.58623C7.13795 26.2774 3.37935 27.3838 0 28.0062C0.862085 28.6977 2.34461 30.1846 3.03449 31.0143C6.62073 30.0116 11.138 28.352 14.0345 26.4502L11.0345 25.1019H20.6552L17.8621 26.8998C21.6207 28.1791 25.4138 29.7695 27.5517 30.9105L32 28.8706C29.5862 27.7989 25.6207 26.2775 21.9655 25.1019H27.8277Z" fill="black"/>
</g>
</svg>
