	<svg width="35" height="12" viewBox="0 0 35 12" fill="none" stroke="currentColor"  xmlns="http://www.w3.org/2000/svg">
	<path d="M4.68642 0L0 11.869H11.8001L7.13232 0H4.68019H4.68642ZM2.98736 9.89292L5.84402 2.36117H5.87514L8.71935 9.89292H2.98113H2.98736Z" fill="black"/>
	<path d="M23.8672 0V1.74878H28.1864V11.869H30.4145V1.74878H34.7524V0H23.8672Z" fill="black"/>
	<path d="M22.0606 5.83348C22.5211 5.24634 22.7514 4.54556 22.7514 3.72484C22.7514 2.52531 22.3655 1.60989 21.5876 0.965932C20.8096 0.321977 19.708 0 18.2828 0H13.1172V11.869H15.3141V7.43074H18.0152L20.7661 11.869H23.212L20.1935 7.09613C20.9901 6.8436 21.6187 6.42061 22.0668 5.83348H22.0606ZM19.901 5.20215C19.484 5.53675 18.8616 5.7009 18.0277 5.7009H15.3141V1.74247H18.0277C18.8616 1.74247 19.484 1.90661 19.901 2.24122C20.3304 2.57582 20.542 3.06826 20.542 3.71853C20.542 4.36879 20.3304 4.86754 19.901 5.19583V5.20215Z" fill="black"/>
	</svg>
