	<svg width="108" height="50" viewBox="0 0 108 50" fill="none" xmlns="http://www.w3.org/2000/svg">
	<path d="M7.00704 19.612C4.96521 19.612 3.33022 19.2187 2.10206 18.4321C0.89081 17.6277 0.190125 16.4916 0 15.0236H4.85313C4.92269 15.4252 5.13895 15.7398 5.50191 15.9675C5.86521 16.1773 6.34097 16.2821 6.92919 16.2821C7.41396 16.2821 7.78592 16.2122 8.04508 16.0724C8.30424 15.9325 8.43399 15.7228 8.43433 15.4431C8.43433 15.1988 8.33917 15.024 8.14886 14.9187C7.9755 14.796 7.52569 14.6737 6.79943 14.5517L4.41196 14.1582C3.02821 13.9306 2.00746 13.4937 1.34972 12.8473C0.692642 12.2003 0.363936 11.3264 0.363599 10.2255C0.363599 8.82747 0.951823 7.68257 2.12827 6.79081C3.322 5.89936 4.81851 5.45363 6.6178 5.45363C8.52054 5.45363 10.0344 5.85566 11.1592 6.6597C12.3011 7.44628 12.9585 8.55624 13.1315 9.98956H8.51218C8.46028 9.6225 8.26132 9.32535 7.91531 9.0981C7.56964 8.85373 7.15442 8.73137 6.66966 8.73103C6.25446 8.73103 5.91709 8.80968 5.65755 8.96699C5.39802 9.1243 5.26827 9.33405 5.2683 9.59623C5.26363 9.69875 5.28504 9.80078 5.33047 9.89257C5.3759 9.98437 5.44385 10.0629 5.52784 10.1206C5.71782 10.2433 6.14168 10.357 6.79943 10.4616L9.34265 10.8811C10.6578 11.0909 11.6526 11.5453 12.327 12.2445C13.0193 12.9262 13.3654 13.8264 13.365 14.9451C13.365 16.3431 12.7682 17.4705 11.5744 18.3273C10.3983 19.1841 8.87585 19.6123 7.00704 19.612ZM20.486 0V7.70847C20.8445 7.01483 21.3943 6.44107 22.069 6.05667C22.7603 5.65506 23.5561 5.45405 24.4564 5.45363C26.0301 5.45363 27.2585 5.91684 28.1415 6.84327C29.0404 7.75257 29.4902 9.0199 29.4909 10.6453V19.2974H24.1969V11.956C24.1969 11.1516 24.0413 10.5485 23.7301 10.1469C23.4353 9.74526 22.9855 9.54425 22.3806 9.54383C21.7744 9.54383 21.3073 9.77115 20.9793 10.2258C20.6502 10.6631 20.4859 11.3011 20.4862 12.1398V19.2974H15.192V0H20.486ZM38.5478 5.45358C40.8149 5.45358 42.6228 6.09158 43.9716 7.36759C45.3211 8.64394 45.9958 10.3657 45.9958 12.5329C45.9958 14.7007 45.3211 16.4224 43.9716 17.698C42.6222 18.9744 40.8146 19.6124 38.5491 19.612C36.282 19.612 34.4741 18.974 33.1253 17.698C31.7758 16.4217 31.101 14.7 31.101 12.5329C31.101 10.3651 31.7757 8.64334 33.1251 7.36771C34.4746 6.09135 36.2822 5.45323 38.5478 5.45358ZM38.5478 9.2029C37.8388 9.2029 37.3026 9.48256 36.9391 10.0419C36.5934 10.6009 36.4204 11.4312 36.42 12.5327C36.4197 13.6342 36.5927 14.4645 36.9391 15.0235C37.3024 15.5825 37.8386 15.8621 38.5478 15.8625C39.2578 15.8625 39.7858 15.5828 40.1319 15.0235C40.4951 14.4645 40.6768 13.6342 40.6768 12.5327C40.6768 11.4312 40.4951 10.6009 40.1317 10.042C39.7852 9.48296 39.2571 9.20324 38.5478 9.2029ZM56.9448 19.612C56.0791 19.612 55.2919 19.4197 54.5833 19.0351C53.8909 18.6335 53.3806 18.1004 53.0522 17.4358V23.9643H47.7584V5.76825H53.0005V7.62981C53.3285 6.96595 53.8475 6.44157 54.5575 6.05667C55.2895 5.65336 56.1113 5.44578 56.945 5.45363C58.692 5.45363 60.0933 6.10909 61.149 7.41999C62.2037 8.71313 62.7314 10.4174 62.7321 12.5328C62.7321 14.6481 62.2044 16.3611 61.149 17.6717C60.0933 18.9648 58.6918 19.6116 56.9448 19.612ZM55.1804 9.20296C54.488 9.20296 53.943 9.46516 53.5455 9.98956C53.1645 10.514 52.9742 11.2481 52.9745 12.192V12.874C52.9745 13.8179 53.1649 14.552 53.5455 15.0764C53.943 15.6008 54.4879 15.863 55.1804 15.863C55.907 15.863 56.4606 15.5833 56.8412 15.024C57.2387 14.4472 57.4377 13.6169 57.4381 12.5332C57.4385 11.4495 57.2395 10.628 56.8412 10.0686C56.4603 9.4915 55.9067 9.20296 55.1804 9.20296ZM69.8166 4.29996H64.4711V0H69.817L69.8166 4.29996ZM69.7927 19.2973H64.4987V5.76825H69.7927V19.2973ZM83.7389 20.7393C84.4998 20.7393 85.0707 20.5295 85.4517 20.1101C85.8492 19.7084 86.0481 19.1054 86.0486 18.3009V16.4656C85.702 17.1659 85.1609 17.7491 84.4915 18.1436C83.7991 18.5452 83.0206 18.7463 82.1559 18.7467C80.3736 18.7467 78.9463 18.1349 77.874 16.9113C76.8183 15.6875 76.2906 14.0794 76.2909 12.087C76.2913 10.0945 76.819 8.49514 77.874 7.28888C78.9463 6.06512 80.3736 5.45333 82.1559 5.45352C82.9816 5.44359 83.7956 5.65144 84.5174 6.05655C85.2441 6.45816 85.7717 6.99995 86.1004 7.68193V5.76825H91.3425V17.4357C91.3425 19.6381 90.6851 21.3249 89.3702 22.496C88.055 23.6843 86.1866 24.2786 83.7648 24.2789C81.7064 24.2789 80.0282 23.8594 78.7305 23.0204C77.4505 22.1992 76.6893 21.063 76.4467 19.6119H81.6629C81.7156 19.7932 81.8051 19.9615 81.9257 20.106C82.0464 20.2504 82.1955 20.3679 82.3636 20.4509C82.7092 20.6428 83.1677 20.7389 83.7389 20.7393ZM83.8687 15.0759C84.5777 15.0759 85.1313 14.8312 85.5295 14.3418C85.927 13.852 86.126 13.1703 86.1264 12.2967V11.8509C86.1264 11.0119 85.9188 10.3564 85.5035 9.88453C85.106 9.39476 84.5611 9.15004 83.8686 9.15039C83.142 9.15039 82.5797 9.40383 82.1818 9.91073C81.8009 10.4173 81.6106 11.1427 81.6109 12.0869C81.6109 13.0486 81.8012 13.7915 82.1818 14.3155C82.5794 14.8222 83.1417 15.0756 83.8687 15.0759ZM100.552 5.45352C102.818 5.45352 104.626 6.09152 105.976 7.36754C107.326 8.64355 108 10.3653 108 12.5329C108 14.7007 107.325 16.4224 105.976 17.698C104.626 18.9744 102.818 19.6124 100.552 19.612C98.2857 19.6117 96.4778 18.9737 95.1283 17.698C93.7788 16.4217 93.1041 14.7 93.1041 12.5329C93.1041 10.3651 93.7789 8.64334 95.1283 7.36771C96.4776 6.09128 98.2855 5.45314 100.552 5.45352ZM100.552 9.20284C99.8431 9.20284 99.3068 9.48251 98.9433 10.0418C98.5976 10.6008 98.4247 11.4311 98.4243 12.5326C98.424 13.6342 98.597 14.4644 98.9433 15.0234C99.3066 15.5824 99.8429 15.8621 100.552 15.8624C101.261 15.8628 101.789 15.5831 102.135 15.0234C102.498 14.4644 102.68 13.6342 102.68 12.5326C102.68 11.4311 102.498 10.6008 102.135 10.0418C101.789 9.48292 101.262 9.20318 100.552 9.20284ZM19.749 30.624H16.4792V28.815H19.749V30.624ZM13.9103 30.624H10.7699V28.815H13.91L13.9103 30.624ZM8.20089 30.624H5.08667V28.815H8.20078L8.20089 30.624ZM22.7334 26.4814H2.23205V32.9313H22.7333L22.7334 26.4814ZM6.74745 42.2391H18.1141V43.5501H6.74745V42.2391ZM6.74745 39.0928H18.1141V40.4038H6.74745V39.0928ZM6.74745 35.9728H18.1141V37.2575H6.74745V35.9728ZM21.358 45.5165V34.0063H3.6334V45.5165H7.62984C5.78732 46.408 2.95869 47.247 0.415461 47.719C1.06425 48.2433 2.17996 49.3708 2.69915 50C5.39807 49.2397 8.79765 47.9811 10.9775 46.539L8.7198 45.5165H15.9601L13.8581 46.8799C16.6867 47.85 19.5413 49.0561 21.1503 49.9213L24.4979 48.3744C22.6813 47.5617 19.697 46.408 16.9462 45.5165H21.358ZM35.4753 36.9691L33.0878 37.6511V33.4297H35.2418V30.4667H33.0878V25.4326H30.2591V30.4667H29.0393C29.195 29.418 29.3247 28.3954 29.4285 27.3467L26.8594 26.901C26.6258 29.9949 26.1844 33.2723 25.38 35.3435C25.9509 35.6845 27.0927 36.3923 27.5599 36.7856C27.9232 35.8417 28.2349 34.7142 28.5201 33.4295H30.2588V38.4374C28.4942 38.9355 26.9112 39.355 25.6136 39.6434L26.3662 42.6062C27.5599 42.2916 28.8575 41.8721 30.2587 41.4525V49.9213H33.0873V40.5873C34.0475 40.2989 34.9557 39.9843 35.89 39.7221L35.4753 36.9691ZM40.0946 29.4704C40.4579 28.3168 40.7953 27.1369 41.0548 25.9308L38.2521 25.4064C37.4735 29.2607 36.0463 33.01 33.9961 35.2911C34.6189 35.6843 35.8386 36.5496 36.3317 37.0478C37.3438 35.7893 38.2521 34.1637 39.0047 32.3546H40.3282C39.1863 36.1566 37.1621 40.0368 34.593 42.0819C35.3974 42.5276 36.3836 43.2356 36.9545 43.8386C39.5758 41.3215 41.7554 36.6283 42.8973 32.3546H44.117C42.8195 38.4899 40.2246 44.4416 36.0722 47.4569C36.9286 47.9026 37.9926 48.6629 38.5895 49.266C42.7676 45.7788 45.4407 38.9619 46.712 32.3546H46.8417C46.4265 41.7673 45.9594 45.3331 45.3106 46.1721C44.9992 46.5654 44.7397 46.6703 44.3504 46.6703C43.5792 46.6781 42.8082 46.6431 42.0408 46.5655C42.5077 47.4307 42.8194 48.7154 42.8972 49.6069C44.0131 49.6594 45.103 49.6594 45.8297 49.5282C46.6861 49.3447 47.257 49.0565 47.8538 48.1649C48.84 46.8539 49.3071 42.5802 49.8001 30.8864C49.826 30.5194 49.852 29.4706 49.852 29.4706L40.0946 29.4704Z" fill="black"/>
	</svg>
